# xmcd
#
# Track frame offsets:
#	150
#	19913
#	40305
#	60142
#	82378
#
# Disc length: 1405 seconds
# Revision: 0
# Processed by: cddbd v1.5.2PL0 Copyright (c) Steve Scherf et al.
# Submitted via: dBpowerAMP V12.0
#
DISCID=39057b05
DTITLE=The Grahams - A Good Man
DYEAR=1900
DGENRE=
TTITLE0=A Good Man
TTITLE1=A Good Man (Acoustic)
TTITLE2=A Good Man (album)
TTITLE3=Down By the River
TTITLE4=Springfield '61
EXTD=
EXTT0=
EXTT1=
EXTT2=
EXTT3=
EXTT4=
PLAYORDER=
